<!--?xml version="1.0" encoding="utf-8"?-->
<!-- Generator: Adobe Illustrator 18.0.0, SVG Export Plug-In . SVG Version: 6.00 Build 0)  -->

<svg version="1.1" id="_x32_" xmlns="http://www.w3.org/2000/svg" xmlns:xlink="http://www.w3.org/1999/xlink" x="0px" y="0px" viewBox="0 0 512 512" style="width: 32px; height: 32px; opacity: 1;" xml:space="preserve">
<style type="text/css">
	.st0{fill:#4B4B4B;}
</style>
<g>
	<path class="st0" d="M447.139,16H64.859C29.188,16,0,45.729,0,82.063v268.519c0,36.334,29.188,66.063,64.859,66.063h155.192
		l74.68,76.064c3.156,3.213,7.902,4.174,12.024,2.436c4.121-1.74,6.808-5.836,6.808-10.381v-68.119h133.576
		c35.674,0,64.861-29.729,64.861-66.063V82.063C512,45.729,482.812,16,447.139,16z M96,132v-32h320v32H96z M96,232v-32h320v32H96z
		 M324,300v32H96v-32H324z" style="fill: rgb(255, 255, 255);"></path>
</g>
</svg>
