<!--?xml version="1.0" encoding="utf-8"?-->
<!-- Generator: Adobe Illustrator 19.1.1, SVG Export Plug-In . SVG Version: 6.00 Build 0)  -->
<svg version="1.1" id="_x31_0" xmlns="http://www.w3.org/2000/svg" xmlns:xlink="http://www.w3.org/1999/xlink" x="0px" y="0px" viewBox="0 0 512 512" style="width: 32px; height: 32px; opacity: 1;" xml:space="preserve">
<style type="text/css">
	.st0{fill:#374149;}
</style>
<g>
	<polygon class="st0" points="148.195,212.317 111.59,212.317 111.59,248.652 111.59,248.762 111.59,248.762 111.59,248.922 
		148.195,248.922 148.195,212.695 148.195,212.477 148.195,212.477 	" style="fill: rgb(255, 255, 255);"></polygon>
	<rect x="170.77" y="212.317" class="st0" width="36.606" height="36.605" style="fill: rgb(255, 255, 255);"></rect>
	<rect x="230.07" y="212.317" class="st0" width="36.606" height="36.605" style="fill: rgb(255, 255, 255);"></rect>
	<rect x="289.25" y="212.317" class="st0" width="36.609" height="36.605" style="fill: rgb(255, 255, 255);"></rect>
	<polygon class="st0" points="148.195,271.617 111.59,271.617 111.59,307.953 111.59,308.066 111.59,308.066 111.59,308.222 
		148.195,308.222 148.195,272 148.195,271.778 148.195,271.778 	" style="fill: rgb(255, 255, 255);"></polygon>
	<rect x="170.77" y="271.617" class="st0" width="36.606" height="36.606" style="fill: rgb(255, 255, 255);"></rect>
	<rect x="230.07" y="271.617" class="st0" width="36.606" height="36.606" style="fill: rgb(255, 255, 255);"></rect>
	<polygon class="st0" points="148.195,330.957 148.195,330.797 111.859,330.797 111.746,330.797 111.746,330.797 111.59,330.797 
		111.59,367.133 111.59,367.246 111.59,367.246 111.59,367.402 148.195,367.402 148.195,331.18 148.195,330.957 	" style="fill: rgb(255, 255, 255);"></polygon>
	<polygon class="st0" points="170.93,330.797 170.93,330.797 170.77,330.797 170.77,367.402 207.375,367.402 207.375,330.797 
		171.043,330.797 	" style="fill: rgb(255, 255, 255);"></polygon>
	<polygon class="st0" points="230.23,330.797 230.23,330.797 230.07,330.797 230.07,367.402 266.676,367.402 266.676,330.797 
		230.344,330.797 	" style="fill: rgb(255, 255, 255);"></polygon>
	<path class="st0" d="M423.473,290.898V72.602c0-9.519-7.683-17.207-17.078-17.207h-47.226V42.707
		C359.168,19.156,340.012,0,316.461,0h-18.914C274,0,254.84,19.156,254.84,42.707v12.687h-72.355V42.707
		C182.485,19.156,163.325,0,139.898,0h-18.914C97.434,0,78.278,19.156,78.278,42.707v12.687H31.055
		c-9.395,0-17.082,7.688-17.082,17.207v375.215c0,9.515,7.687,17.202,17.082,17.202h260.878
		C312.558,493.453,346.114,512,383.942,512c62.961,0,114.086-51.25,114.086-114.09C498.027,348.855,467.035,307.004,423.473,290.898
		z M120.985,36.606h18.914c3.294,0,5.981,2.805,5.981,6.102v50.148c0,1.465-1.222,2.688-2.687,2.688h-25.626
		c-1.461,0-2.683-1.223-2.683-2.688V42.707C114.883,39.41,117.566,36.606,120.985,36.606z M297.547,36.606h18.914
		c3.418,0,6.102,2.805,6.102,6.102v50.148c0,1.465-1.218,2.688-2.804,2.688h-25.504c-1.586,0-2.805-1.223-2.805-2.688V42.707
		C291.45,39.41,294.254,36.606,297.547,36.606z M383.942,475.394c-14.035,0-27.09-3.785-38.438-10.375
		c-18.179-10.37-31.726-27.941-36.606-48.804c-1.59-5.86-2.32-11.962-2.32-18.305c0-10.86,2.199-21.11,6.222-30.508
		c3.297-7.562,7.688-14.519,13.058-20.496c12.199-14.035,29.406-23.551,48.809-25.871c3.047-0.363,6.102-0.61,9.274-0.61
		c14.398,0,27.942,3.906,39.531,10.985c22.699,13.422,37.95,38.191,37.95,66.5C461.422,440.617,426.649,475.394,383.942,475.394z
		 M289.25,334.457c-12.199,18.184-19.278,40.024-19.278,63.454c0,5.902,0.473,11.683,1.352,17.367
		c0.038,0.308,0.054,0.625,0.098,0.938H62.782V166.07h311.886v118.117c-15.274,1.262-29.637,5.68-42.644,12.395
		c-2.059,1.034-4.149,1.98-6.165,3.14v-28.106H289.25v36.606h13.714l10.543,0.126c-8.234,6.441-15.508,13.961-21.574,22.449
		C290.961,332.019,290.106,333.238,289.25,334.457z" style="fill: rgb(255, 255, 255);"></path>
	<polygon class="st0" points="423.473,359.598 423.473,359.594 422.989,359.106 377.594,404.5 374.668,401.57 349.715,376.496 
		349.645,376.426 349.641,376.426 349.527,376.313 329.641,396.199 349.527,416.215 377.594,444.398 423.473,398.398 
		442.723,379.152 442.762,379.11 442.762,379.11 442.879,378.996 	" style="fill: rgb(255, 255, 255);"></polygon>
</g>
</svg>
