<!--?xml version="1.0" encoding="utf-8"?-->
<!-- Generator: Adobe Illustrator 18.1.1, SVG Export Plug-In . SVG Version: 6.00 Build 0)  -->

<svg version="1.1" id="_x31_0" xmlns="http://www.w3.org/2000/svg" xmlns:xlink="http://www.w3.org/1999/xlink" x="0px" y="0px" viewBox="0 0 512 512" style="width: 32px; height: 32px; opacity: 1;" xml:space="preserve">
<style type="text/css">
	.st0{fill:#374149;}
</style>
<g>
	<path class="st0" d="M507.88,314.485c-2.141-10.973-86.718-56.867-90.477-57.742h-1.402v-27.667
		c7.344-4.153,9.094-16.391,9.574-19.711c0-0.035,0.008-0.05,0.012-0.078c0.011-0.082,0.035-0.144,0.046-0.226
		c10.477,3.512,12.004-16.266,12.527-21.203c0.485-4.542-1.527-7.734-2.968-8.957c0.347-0.703,0.742-1.793,1.136-3.062
		c1.004-3.191,1.879-7.824,2.227-12.676c0.527-7.125-0.13-14.902-3.496-19.71c-1.18-1.661-3.016-3.762-5.114-5.902
		c-4.894-4.809-11.278-9.746-15.035-9.746c-6.078-10.93-13.859-18.008-28.195-18.973c-0.875-0.042-1.746-0.042-2.707-0.086
		c-11.89-0.176-32.39,14.074-40.519,28.805c-8.133,14.644-10.535,19.93-6.426,38.289c0.347,1.27,0.742,2.359,1.137,3.062
		c-0.742,0.61-1.574,1.703-2.188,3.234c-0.609,1.527-1.004,3.453-0.742,5.722c0.086,1.051,0.262,2.754,0.523,4.766
		c1.008,7.52,3.714,19.23,12.023,16.434c0.172,1.489,0.914,5.598,2.446,9.793c1.531,4.196,3.805,8.434,7.125,10.227v27.667h-1.442
		c-1.546,0.379-17.461,8.758-35.511,19.126c-2.867,1.617-5.774,3.266-8.695,4.949c0.031,0.016,0.062,0.031,0.09,0.047
		c-0.054,0.031-0.106,0.062-0.16,0.094c17.266,9.004,40.91,22.949,41.218,23.125c49.828,29.504,57.476,39.469,59.922,49.305
		c15.172-0.219,30.336-0.657,45.504-1.313l51.226-2.141c1.488-0.042,2.582-1.312,2.449-2.801
		C511.247,340.141,509.235,321.259,507.88,314.485z" style="fill: rgb(255, 255, 255);"></path>
	<path class="st0" d="M194.826,283.856c1.864-0.973,3.774-1.981,5.434-2.805c-0.027-0.015-0.058-0.031-0.086-0.05
		c0.054-0.028,0.114-0.059,0.168-0.086c-21.375-12.542-42.488-23.734-44.324-24.172h-1.398v-27.667
		c7.343-4.153,9.094-16.391,9.574-19.711v-0.215c0.003-0.034,0.011-0.058,0.019-0.09c8.942,2.988,11.344-10.847,12.218-18.098
		c0.176-1.27,0.262-2.359,0.348-3.106c0.176-1.574,0.046-2.972-0.262-4.195c-0.566-2.316-1.746-3.976-2.707-4.762
		c0.348-0.703,0.742-1.793,1.133-3.062c0.961-3.191,1.882-7.824,2.23-12.676c0.481-7.125-0.129-14.902-3.539-19.71
		c-1.137-1.661-2.973-3.762-5.07-5.902c-4.898-4.809-11.277-9.746-15.035-9.746c-6.078-10.93-13.859-18.008-28.195-18.973
		c-0.874-0.042-1.793-0.042-2.71-0.086c-11.887-0.176-32.387,14.074-40.516,28.805c-8.133,14.644-10.535,19.93-6.469,38.289
		c0.391,1.27,0.786,2.359,1.18,3.062c-1.446,1.222-3.41,4.414-2.973,8.957c0.524,4.942,2.055,24.742,12.586,21.199
		c0.175,1.489,0.918,5.598,2.449,9.793c1.531,4.196,3.758,8.434,7.082,10.227v27.667h-1.398c-0.906,0.215-6.622,3.11-14.758,7.504
		c-5.93,3.188-13.113,7.18-20.691,11.543C34.279,290.048,5.35,308.126,4.084,314.485c-1.312,6.774-3.32,25.614-4.066,32.606
		c-0.175,1.488,0.965,2.754,2.45,2.843l51.183,2.141c15.168,0.656,30.336,1.094,45.504,1.313
		c2.488-9.836,10.141-19.801,59.969-49.305C159.435,303.923,178.451,292.7,194.826,283.856z" style="fill: rgb(255, 255, 255);"></path>
	<path class="st0" d="M387.33,353.602c-19.188-17.918-93.187-57.957-96.906-58.789h-1.266h-0.305v-30.988
		c8.082-4.602,10.11-17.859,10.672-21.875c0.031-0.191,0.074-0.347,0.102-0.542c0.91,0.301,1.82,0.43,2.602,0.43
		c9.394,0,10.882-19.141,11.449-24.211c0.528-5.07-1.702-8.656-3.32-10.011c0.394-0.833,0.828-2.012,1.266-3.454
		c1.094-3.582,2.102-8.742,2.492-14.207c0.57-7.996-0.129-16.695-3.934-22.07c-1.308-1.883-3.363-4.242-5.726-6.602
		c-5.465-5.422-12.629-10.926-16.828-10.926c-6.816-12.238-15.515-20.195-31.602-21.246c-0.961-0.086-1.965-0.086-3.015-0.129
		h-0.219c-13.374,0-36.102,15.867-45.195,32.301c-9.09,16.39-11.801,22.335-7.21,42.878c0.438,1.442,0.874,2.621,1.312,3.454
		c-1.621,1.355-3.847,4.941-3.324,10.011c0.523,5.07,2.012,24.211,11.406,24.211c0.832,0,1.707-0.129,2.668-0.434
		c0.218,1.66,1.05,6.25,2.754,10.926c1.707,4.722,4.242,9.484,7.957,11.496v10.656l-0.305,20.332h-0.003h-1.266
		c-3.672,0.832-77.629,40.871-96.859,58.789c-2.626,2.406-4.199,4.418-4.504,5.902c-1.485,7.562-3.758,28.676-4.59,36.543
		c-0.176,1.617,1.094,3.058,2.71,3.144l57.39,2.406c26.836,1.094,53.719,1.66,80.554,1.66c26.664,0,53.328-0.523,79.946-1.66
		l57.39-2.363c1.664-0.086,2.93-1.527,2.754-3.144c-0.828-7.867-3.102-29.024-4.59-36.586
		C391.525,358.02,389.907,356.008,387.33,353.602z" style="fill: rgb(255, 255, 255);"></path>
</g>
</svg>
